<svg width="623" height="188" viewBox="0 0 623 188" fill="none" xmlns="http://www.w3.org/2000/svg">
<path opacity="0.02" d="M9.5 0L0 24.5V188H623V100L610 135.5L597.5 100L581 75.5L561.5 100L548 117.5L539 100H515L504.5 67.5L491.5 100L478.5 135.5L466 100L455 93.5L432.5 100L419.5 91.5L401.5 74L387 67.5L373.5 32.5L364 41.5L347 32.5L333.5 20.5L321 32.5L304 41.5L291.5 32.5L279 68L268 32.5L249.5 50L232.5 32.5L216.5 91.5L201 82.5L183 91.5L162.5 82.5L139.5 100L122.5 24.5L108 12.5L94.5 24.5L85 42L70.5 24.5L60.5 33.5L48 24.5L42 18L33 24.5L25 12.5L16 24.5L9.5 0Z" fill="#3A6FF8"/>
</svg>
