<svg width="20" height="20" viewBox="0 0 20 20" fill="none" xmlns="http://www.w3.org/2000/svg">
<path d="M10 0C4.48 0 0 4.48 0 10C0 15.52 4.48 20 10 20C15.52 20 20 15.52 20 10C20 4.48 15.52 0 10 0ZM13.82 14.32C13.73 14.8 13.32 15.14 12.84 15.14H7.29999C6.63999 15.14 6.16 14.5 6.34 13.87L7.17999 10.92L5.47 11.26C5.42 11.27 5.37001 11.27 5.32001 11.27C4.97001 11.27 4.66 11.02 4.59 10.67C4.51 10.26 4.76999 9.87 5.17999 9.79L7.64999 9.3L8.95999 4.73C9.01999 4.52 9.22 4.37 9.44 4.37H10.8C11.46 4.37 11.94 4.99 11.77 5.63L10.96 8.64L12.89 8.25C13.29 8.17 13.69 8.43 13.77 8.84C13.85 9.25 13.59 9.64 13.18 9.72L10.52 10.25L9.97 12.3H13C13.62 12.3 14.09 12.86 13.98 13.48L13.82 14.32Z" fill="#64CFF9"/>
</svg>
